<?xml version="1.0" encoding="utf-8"?>
<!-- Generator: Adobe Illustrator 25.2.3, SVG Export Plug-In . SVG Version: 6.00 Build 0)  -->
<svg version="1.1" id="JA" xmlns="http://www.w3.org/2000/svg" xmlns:xlink="http://www.w3.org/1999/xlink" x="0px" y="0px"
	 viewBox="0 0 616.96 600.93" style="enable-background:new 0 0 616.96 600.93;" xml:space="preserve">
<style type="text/css">
	.st0{display:none;}
	.st1{display:inline;stroke:#020202;stroke-miterlimit:10;}
	.st2{fill:#FFFFFF;}
</style>
<g class="st0">
	<ellipse class="st1" cx="309.55" cy="310.86" rx="114.55" ry="111.66"/>
</g>
<g>
	<g>
		<path id="Letter_J_1st_Stroke_1_" class="st2" d="M425.26,149.81c0.34-0.72-0.58-1.39-1.18-0.86c-2.71,2.4-5.94,5.77-9.06,10.36
			c-8.39,12.34-10.6,25.53-11.6,31.83c-1.97,12.48-0.98,22.42-0.17,30.12c0.62,5.86,1.72,12.48,5.04,24.99
			c5.03,18.97,10.11,32.34,11.77,36.96c16.95,47.1,10.52,88.71,7.2,101.32c-0.48,1.82-0.98,3.57-0.98,3.57
			c-5.76,20.06-12.46,28.86-11.43,29.91c2.08,2.12,15.69-12.14,25.05-30.76c2.38-4.74,6.02-12.8,8.91-23.71
			c0,0,10.65-40.15-1.68-83.31c-3.64-12.74-8.57-24.35-8.57-24.35c-3.2-7.52-4.74-9.86-7.9-17.3l0,0
			c-4.86-10.25-15.28-32.21-13.68-57.42C417.44,173.93,419.12,162.81,425.26,149.81z"/>
		<path id="Letter_J_2nd_Stroke" class="st2" d="M432.84,342.15c-0.11-0.89-1.46-0.85-1.5,0.05c-0.61,15.04-3.93,38.2-17.83,55.28
			c-2.08,2.56-7.46,8.73-19.39,15.38c-28.5,15.88-55.75,12.91-69.16,11.25c-42.64-5.27-71.87-29.54-82.16-38.31
			c-2.85-2.43-10.26-11.28-11.1-10.25c-0.95,1.17,7.27,14.3,13.11,22.22c8.66,11.72,18.09,20.1,26.46,26.07
			c1.05,0.75,10.14,7.18,20.61,11.81c20.93,9.25,83.44,21.25,127.21-19.57c36.11-33.67,34.49-79.98,33.25-92.97
			c-0.07-0.77-1.17-0.91-1.45-0.19c-4.82,12.13-9.64,24.25-14.46,36.38c-0.28,0.71-1.35,0.58-1.45-0.17L432.84,342.15z"/>
		<path class="st2" d="M365.87,330.26"/>
	</g>
	<g>
		<path id="Letter_J_1st_Stroke" class="st2" d="M448.51,523.11c0.15,0.72,1.17,0.8,1.44,0.11c1.07-2.79,2.18-6.55,2.75-11.22
			c1.47-12.05-1.61-22.39-3.12-27.3c-3-9.74-7.14-16.53-10.39-21.77c-2.47-3.99-5.54-8.35-12.18-16.12
			c-10.07-11.78-18.23-19.5-20.98-22.21c-28.08-27.58-38.17-59.97-40.28-70.31c-0.31-1.49-0.57-2.94-0.57-2.94
			c-3.03-16.62-1.49-25.48-2.57-25.85c-2.17-0.75-6.56,14.65-6.5,31.59c0.01,4.31,0.33,11.49,2.14,20.44c0,0,6.68,32.94,30.21,59.41
			c6.94,7.81,14.39,14.33,14.39,14.33c4.82,4.22,6.7,5.33,11.47,9.5c0,0,8.01,7.01,14.39,14.33
			C440.51,488.63,446.54,513.68,448.51,523.11z"/>
		<path id="Letter_J_1st_Stroke_2_" class="st2" d="M377.57,320.01c0.54-0.51,0.06-1.37-0.68-1.24c-3.16,0.57-7.32,1.69-12.17,4
			c-12.2,5.82-20.87,15.39-24.97,20c-8.12,9.12-12.93,17.65-16.62,24.29c-2.81,5.05-5.73,10.95-10.43,22.72
			c-7.14,17.84-11.18,31.18-12.63,35.74c-14.84,46.52-41.81,76.99-50.88,85.55c-1.31,1.23-2.59,2.4-2.59,2.4
			c-14.73,13.37-23.9,17.17-23.81,18.52c0.18,2.75,16.83-2.04,33.1-12.46c4.14-2.65,10.92-7.37,18.78-14.76
			c0,0,28.91-27.2,44.59-68.24c4.63-12.11,7.79-23.96,7.79-23.96c2.05-7.67,2.33-10.33,4.37-17.92c0,0,3.41-12.75,7.79-23.96
			C347.46,349.59,369.65,327.51,377.57,320.01z"/>
	</g>
</g>
</svg>
